HIERARCHY
ROOT Hips
{
	OFFSET 0.000000 0.000000 0.000000 
	CHANNELS 6 Xposition Yposition Zposition Yrotation Zrotation Xrotation 
	JOINT Lumbar
	{
		OFFSET 0.000000 0.000000 0.000000 
		CHANNELS 3 Zrotation Xrotation Yrotation
		JOINT Neck
		{
			OFFSET 0.000000 0.445665 0.000000 
			CHANNELS 3 Zrotation Xrotation Yrotation
			End Site
			{
				OFFSET 0.000000 0.227535 0.000000 
			}
		}
		JOINT RightShoulder
		{
			OFFSET 0.019635 0.377685 0.194865 
			CHANNELS 3 Zrotation Xrotation Yrotation
			JOINT RightElbow
			{
				OFFSET 0.000000 -0.243375 0.000000 
				CHANNELS 2 Zrotation Yrotation
				JOINT RightWrist
				{
					OFFSET 0.000000 -0.264825 0.000000 
					CHANNELS 2 Zrotation Xrotation
					End Site
					{
						OFFSET 0.006600 -0.176220 0.000990 
					}
				}
			}
		}
		JOINT LeftShoulder
		{
			OFFSET 0.019635 0.377685 -0.194865 
			CHANNELS 3 Zrotation Xrotation Yrotation
			JOINT LeftElbow
			{
				OFFSET 0.000000 -0.243375 0.000000 
				CHANNELS 2 Zrotation Yrotation
				JOINT LeftWrist
				{
					OFFSET 0.000000 -0.264825 0.000000 
					CHANNELS 2 Zrotation Xrotation
					End Site
					{
						OFFSET 0.006600 -0.176220 -0.000990 
					}
				}
			}
		}
	}
	JOINT RightHip
	{
		OFFSET 0.052140 -0.069960 0.075570 
		CHANNELS 3 Zrotation Xrotation Yrotation
		JOINT RightKnee
		{
			OFFSET 0.000000 -0.402270 0.000000 
			CHANNELS 1 Zrotation
			JOINT RightAnkle
			{
				OFFSET 0.000000 -0.404085 0.000000 
				CHANNELS 3 Zrotation Xrotation Yrotation
				End Site
				{
					OFFSET 0.204105 -0.089430 0.008415 
				}
			}
		}
	}
	JOINT LeftHip
	{
		OFFSET 0.052140 -0.069960 -0.075570 
		CHANNELS 3 Zrotation Xrotation Yrotation
		JOINT LeftKnee
		{
			OFFSET 0.000000 -0.402270 0.000000 
			CHANNELS 1 Zrotation
			JOINT LeftAnkle
			{
				OFFSET 0.000000 -0.404085 0.000000 
				CHANNELS 3 Zrotation Xrotation Yrotation
				End Site
				{
					OFFSET 0.204105 -0.089430 -0.008415 
				}
			}
		}
	}
}
MOTION
Frames: 13
Frame Time: 0.02
-0.35565 -0.06675 0.10157 24.80949 -36.63756 -8.68444 52.25059 0.92388 -4.86036 -7.11779 -2.12497 -0.83078 169.88181 -26.2752 -90.01163 126.1215 56.94806 -79.69815 -22.97209 -32.69834 13.46056 42.19089 89.43729 -61.86558 -16.20256 -1.17359 48.17054 -2.05736 -6.10377 -23.14191 -6.78179 -3.34199 -2.40325 58.73147 1.08836 7.98773 -26.10288 -7.28739 3.37463 2.43119
-0.35683 -0.06708 0.10131 24.73146 -36.5919 -8.73582 52.15716 0.83923 -4.87719 -7.37779 -1.93786 -0.83079 169.88181 -26.1893 -90.01163 126.3894 56.98653 -79.69815 -22.97201 -32.58145 13.23576 42.04734 89.46913 -62.80708 -15.90566 -1.04206 48.25865 -2.06506 -6.10879 -23.23661 -6.78613 -3.35415 -2.40841 58.7417 1.08233 7.99648 -26.11478 -7.27883 3.38032 2.43438
-0.35805 -0.06745 0.10109 24.67531 -36.54208 -8.76952 52.04761 0.73787 -4.92165 -7.64458 -1.7499 -0.83079 169.88181 -26.08897 -90.01163 126.64836 57.01947 -79.69815 -22.97206 -32.41191 12.92937 41.96236 89.49016 -62.36167 -16.03546 -1.12216 48.35628 -2.10089 -6.18653 -23.359 -6.78987 -3.36401 -2.41117 58.7504 1.05975 7.99074 -26.13319 -7.27027 3.38556 2.43734
-0.35926 -0.06779 0.10086 24.60951 -36.49463 -8.81113 51.94291 0.64567 -4.95883 -7.90197 -1.56719 -0.83079 169.88181 -25.99134 -90.01163 126.90759 57.05373 -79.69815 -22.97205 -32.27785 12.66593 41.8456 89.51396 -62.5991 -15.9562 -1.09749 48.45306 -2.12851 -6.24516 -23.47456 -6.79367 -3.37196 -2.4135 58.75995 1.04532 7.99389 -26.14758 -7.26198 3.39073 2.44022
-0.36045 -0.06817 0.1006 24.54195 -36.44511 -8.85306 51.84776 0.54666 -4.97336 -8.1864 -1.36331 -0.83079 169.88181 -25.91016 -90.01163 127.18477 57.09376 -79.69815 -22.97205 -32.09893 12.38178 41.74275 89.54758 -62.71578 -15.90924 -1.09402 48.5353 -2.13696 -6.24483 -23.56519 -6.79838 -3.39235 -2.42224 58.76922 1.02834 7.98832 -26.16649 -7.25251 3.3971 2.44386
-0.36168 -0.06849 0.10041 24.48382 -36.3988 -8.89021 51.72943 0.45791 -5.04183 -8.41622 -1.2036 -0.83079 169.88181 -25.79124 -90.01163 127.42147 57.12005 -79.69815 -22.97206 -31.99849 12.1203 41.62838 89.5579 -62.71635 -15.9082 -1.10245 48.6503 -2.19124 -6.3813 -23.71537 -6.80109 -3.38679 -2.41733 58.77834 1.0124 7.99586 -26.17746 -7.24555 3.40097 2.44595
-0.36303 -0.06867 0.10037 24.44214 -36.36413 -8.91854 51.5487 0.40192 -5.25187 -8.49065 -1.16569 -0.83079 169.88181 -25.5711 -90.01163 127.55139 57.11122 -79.69815 -22.97206 -32.13922 11.93569 41.46171 89.50638 -62.72658 -15.93359 -1.09202 48.85007 -2.37447 -6.91945 -24.01316 -6.7978 -3.30411 -2.37192 58.79021 1.00719 8.05933 -26.16554 -7.24494 3.39637 2.44278
-0.36441 -0.0688 0.10038 24.41015 -36.33258 -8.9427 51.3458 0.35678 -5.5154 -8.51033 -1.17242 -0.83079 169.88181 -25.31332 -90.01163 127.6402 57.08834 -79.69815 -22.97206 -32.35802 11.77718 41.28361 89.43169 -62.65444 -15.99438 -1.08847 49.08286 -2.60128 -7.586 -24.37153 -6.79261 -3.19642 -2.31342 58.80146 1.00308 8.1343 -26.1453 -7.24692 3.38944 2.43817
-0.36576 -0.06894 0.10038 24.37631 -36.29841 -8.96879 51.15455 0.30652 -5.75489 -8.55695 -1.15904 -0.83079 169.88181 -25.07335 -90.01163 127.74562 57.07089 -79.69815 -22.97206 -32.53333 11.60971 41.11588 89.36761 -62.61213 -16.04072 -1.08377 49.30289 -2.80206 -8.16637 -24.70907 -6.78871 -3.10411 -2.26312 58.81115 0.99581 8.19247 -26.12843 -7.24813 3.38479 2.43497
-0.36717 -0.06911 0.10036 24.33183 -36.269 -8.99415 50.95572 0.25657 -5.99423 -8.59524 -1.1449 -0.83079 169.8818 -24.8308 -90.01163 127.85911 57.05748 -79.69815 -22.97206 -32.74139 11.42695 40.92831 89.30288 -62.55773 -16.09395 -1.07753 49.5145 -3.02982 -8.86476 -25.02034 -6.78302 -2.99492 -2.20331 58.82854 0.99859 8.2958 -26.11347 -7.24781 3.37545 2.42885
-0.36846 -0.06923 0.10038 24.3123 -36.23071 -9.0202 50.76807 0.20866 -6.24618 -8.63765 -1.14293 -0.83079 169.8818 -24.58372 -90.01163 127.94665 57.03216 -79.69815 -22.97206 -32.89958 11.28361 40.77849 89.23408 -62.52369 -16.13643 -1.07383 49.75045 -3.21172 -9.34932 -25.39903 -6.78058 -2.91482 -2.16012 58.82979 0.98167 8.312 -26.09254 -7.25108 3.37475 2.42813
-0.3694 -0.06922 0.1005 24.35239 -36.16499 -9.05 50.61327 0.16478 -6.5199 -8.70589 -1.16375 -0.83079 169.8818 -24.34335 -90.01163 127.96833 56.97935 -79.69815 -22.97207 -32.90813 11.2394 40.73745 89.16025 -62.58565 -16.13687 -1.07297 50.05304 -3.25298 -9.19056 -25.95954 -6.78798 -2.92253 -2.16709 58.78645 0.90342 8.04935 -26.05651 -7.26527 3.40357 2.44562
-0.37022 -0.06917 0.10067 24.41831 -36.09066 -9.08058 50.47127 0.12251 -6.80413 -8.77986 -1.19524 -0.83079 169.8818 -24.09788 -90.01163 127.96627 56.91478 -79.69815 -22.97207 -32.86248 11.23443 40.73461 89.08318 -62.66836 -16.12559 -1.07471 50.37732 -3.24694 -8.81568 -26.58328 -6.79865 -2.96016 -2.19109 58.72694 0.80652 7.70448 -26.01487 -7.28271 3.44033 2.4681
